<svg width="107" height="76" viewBox="0 0 107 76" fill="none" xmlns="http://www.w3.org/2000/svg">
<path d="M42.86 22.3C42.244 28.376 39.794 32.534 35.51 34.774C32.262 36.482 28.062 37.224 22.91 37C20.502 37.056 18.024 36.356 15.476 34.9C13.012 33.5 11.304 31.946 10.352 30.238C9.764 28.474 9.456 26.948 9.428 25.66C9.26 21.068 9.974 17.134 11.57 13.858C12.578 11.758 13.768 10.316 15.14 9.532C18.556 7.488 21.37 6.186 23.582 5.626C24.59 5.374 25.696 5.276 26.9 5.332C28.104 5.36 29.322 5.43 30.554 5.542C31.786 5.626 32.976 5.822 34.124 6.13C36.532 6.774 38.702 8.02 40.634 9.868C42.902 11.996 43.812 15.048 43.364 19.024C43.252 20.172 43.084 21.264 42.86 22.3ZM24.968 31.708C26.172 31.764 27.39 31.61 28.622 31.246C29.882 30.854 31.03 30.322 32.066 29.65C33.13 28.95 34.096 28.152 34.964 27.256C35.832 26.332 36.56 25.38 37.148 24.4C38.408 22.328 39.038 20.424 39.038 18.688C39.038 16.056 38.324 13.858 36.896 12.094C36.42 11.478 35.986 11.086 35.594 10.918C35.202 10.722 34.964 10.596 34.88 10.54C34.796 10.484 34.698 10.428 34.586 10.372C34.362 10.932 33.914 11.324 33.242 11.548C32.598 11.744 31.618 11.856 30.302 11.884C28.426 11.688 27.04 11.646 26.144 11.758C25.248 11.842 24.17 12.262 22.91 13.018C21.65 13.774 20.502 14.712 19.466 15.832C18.458 16.952 17.618 18.212 16.946 19.612C16.302 21.012 15.966 22.426 15.938 23.854C15.546 26.122 16.4 28.012 18.5 29.524C20.292 30.812 22.448 31.54 24.968 31.708ZM30.008 21.376C29.84 21.376 29.336 21.208 28.496 20.872C27.74 21.488 27.292 22.118 27.152 22.762C27.096 23.014 26.956 23.21 26.732 23.35L26.69 23.392C26.438 24.512 26.648 25.226 27.32 25.534C27.768 25.73 28.328 25.828 29 25.828H29.042C29.126 25.772 29.196 25.702 29.252 25.618C29.532 25.422 30.064 25.268 30.848 25.156C32.108 25.156 32.92 25.506 33.284 26.206C33.396 26.458 33.396 26.78 33.284 27.172C32.836 27.9 32.178 28.404 31.31 28.684C28.93 30.056 26.494 30.28 24.002 29.356C22.098 28.684 20.796 27.55 20.096 25.954C19.452 24.414 19.76 22.524 21.02 20.284C21.552 19.332 22.21 18.492 22.994 17.764C24.282 16.364 25.78 15.412 27.488 14.908C29.224 14.432 30.876 14.516 32.444 15.16C33.312 15.3 34.04 15.552 34.628 15.916C35.244 16.28 35.496 16.826 35.384 17.554L35.51 17.638C35.538 18.702 35.328 19.542 34.88 20.158C34.432 20.746 33.872 21.152 33.2 21.376C32.22 21.992 31.156 21.992 30.008 21.376ZM32.696 27.634L32.822 27.466H32.78L32.696 27.634ZM29.21 25.786H29.168C29.196 25.758 29.21 25.758 29.21 25.786Z" fill="#464F60"/>
<path d="M4.336 50.56C4.368 50.256 4.56 50.008 4.912 49.816C5.264 49.624 5.656 49.528 6.088 49.528C6.52 49.528 6.936 49.632 7.336 49.84C7.752 50.032 8.032 50.368 8.176 50.848C9.536 49.664 10.776 49.208 11.896 49.48C12.28 49.56 12.608 49.784 12.88 50.152C13.696 49.368 14.6 48.856 15.592 48.616C16.84 48.568 17.736 48.856 18.28 49.48C18.36 49.56 18.44 49.648 18.52 49.744C18.744 49.984 18.872 50.144 18.904 50.224C19.192 50.672 19.272 51.704 19.144 53.32C18.968 55.416 18.568 57.52 17.944 59.632C17.608 60.704 17.304 61.256 17.032 61.288C16.872 61.32 16.72 61.32 16.576 61.288C16.448 61.256 16.328 61.232 16.216 61.216C16.12 61.216 16.064 61.312 16.048 61.504C15.728 61.92 15.24 62.128 14.584 62.128C13.944 62.128 13.4 61.928 12.952 61.528C12.456 61.112 12.28 60.624 12.424 60.064C12.584 59.488 12.76 58.904 12.952 58.312C13.144 57.704 13.352 57.08 13.576 56.44C13.96 55.32 14.384 54.152 14.848 52.936C14.512 53.32 14.056 54.048 13.48 55.12C12.904 56.176 12.544 56.808 12.4 57.016C12.128 57.56 11.904 57.992 11.728 58.312C11.552 58.616 11.312 58.864 11.008 59.056C10.72 59.232 10.448 59.344 10.192 59.392C9.952 59.44 9.72 59.448 9.496 59.416C8.968 59.336 8.592 59.112 8.368 58.744C8.32 58.616 8.272 58.488 8.224 58.36C8.176 58.232 8.136 58.056 8.104 57.832C8.056 57.336 8.12 56.528 8.296 55.408L8.248 55.48C8.44 55.288 8.504 55.24 8.44 55.336C7.8 56.248 7.416 56.832 7.288 57.088C7.16 57.344 7.024 57.632 6.88 57.952C6.736 58.256 6.568 58.616 6.376 59.032C6.184 59.432 6.032 59.792 5.92 60.112C5.808 60.432 5.672 60.744 5.512 61.048C4.792 62.296 3.528 62.8 1.72 62.56C1.336 62.512 1.008 62.416 0.736 62.272C0.464 62.144 0.352 61.944 0.4 61.672C0.528 61.032 0.824 59.968 1.288 58.48C2.2 55.536 2.744 53.64 2.92 52.792C3.032 52.504 3.128 52.208 3.208 51.904C3.304 51.6 3.4 51.336 3.496 51.112C3.688 50.584 3.968 50.4 4.336 50.56ZM12.664 56.488V56.536C12.696 56.472 12.696 56.456 12.664 56.488ZM20.2624 53.656C20.2784 53 20.2304 52.464 20.1184 52.048C20.0064 51.632 20.0064 51.288 20.1184 51.016C20.2464 50.728 20.4384 50.528 20.6944 50.416C20.9664 50.304 21.2784 50.272 21.6304 50.32C21.9984 50.352 22.3584 50.456 22.7104 50.632C23.5584 51.016 24.1504 51.56 24.4864 52.264C24.5664 52.616 24.5344 53.056 24.3904 53.584C24.2624 54.096 24.1104 54.632 23.9344 55.192C23.7584 55.736 23.5904 56.272 23.4304 56.8C23.2704 57.312 23.2064 57.744 23.2384 58.096C23.6544 57.84 24.0144 57.456 24.3184 56.944C24.6384 56.432 24.9264 55.888 25.1824 55.312C25.4544 54.72 25.7024 54.136 25.9264 53.56C26.1664 52.984 26.3904 52.528 26.5984 52.192C26.8224 51.856 26.9984 51.592 27.1264 51.4C27.2544 51.192 27.3824 51.008 27.5104 50.848C27.7184 50.576 27.9904 50.312 28.3264 50.056C28.4224 49.976 28.7104 49.992 29.1904 50.104C29.6864 50.2 30.0464 50.272 30.2704 50.32C30.5104 50.352 30.6704 50.336 30.7504 50.272L31.0864 50.032C31.5344 49.808 32.0624 49.816 32.6704 50.056C33.2624 50.312 33.5744 50.704 33.6064 51.232C33.5904 51.248 33.5824 51.28 33.5824 51.328L33.6544 51.352L33.4864 51.496C33.3744 51.704 33.2864 51.848 33.2224 51.928C33.1744 51.992 33.0624 52.096 32.8864 52.24C31.7984 53.408 30.5504 55.576 29.1424 58.744C28.7904 59.528 28.4704 60.232 28.1824 60.856C28.6144 61.128 28.9424 61.48 29.1664 61.912C29.3904 62.344 29.3904 62.816 29.1664 63.328C27.8384 64.384 27.0944 65.376 26.9344 66.304C26.8544 66.88 26.7504 67.288 26.6224 67.528C26.5104 67.768 26.3264 68 26.0704 68.224C25.2064 68.864 24.1904 68.704 23.0224 67.744C22.1904 66.912 22.1504 65.872 22.9024 64.624C23.0944 64.288 23.2784 63.936 23.4544 63.568C23.7104 63.024 24.1184 62.216 24.6784 61.144C23.3024 61.944 22.0384 61.928 20.8864 61.096C20.0704 60.472 19.7824 59.056 20.0224 56.848C20.1824 55.376 20.2624 54.312 20.2624 53.656Z" fill="#464F60"/>
<path d="M63.226 31.524C64.178 32.028 64.78 32.77 65.032 33.75C64.472 36.886 63.968 40.008 63.52 43.116C63.072 46.196 62.638 48.786 62.218 50.886C61.798 52.958 61.504 54.512 61.336 55.548C61.196 56.584 61.028 57.62 60.832 58.656L60.58 59.538C60.524 59.846 60.468 60.126 60.412 60.378C60.356 60.658 60.3 60.952 60.244 61.26C59.46 62.156 58.396 62.604 57.052 62.604C55.624 62.604 54.49 62.24 53.65 61.512C53.146 61.12 53.062 60.294 53.398 59.034C53.538 58.53 53.622 57.886 53.65 57.102C53.706 56.29 53.762 55.618 53.818 55.086V55.002C52.978 55.31 52.222 55.716 51.55 56.22C50.878 56.696 50.458 57.004 50.29 57.144C50.122 57.256 49.898 57.354 49.618 57.438C49.338 57.494 49.086 57.536 48.862 57.564C48.33 57.592 47.966 57.676 47.77 57.816C46.146 60.728 44.69 62.352 43.402 62.688C42.59 62.94 41.778 62.996 40.966 62.856C40.154 62.744 39.51 62.268 39.034 61.428C38.138 60.588 38.362 58.292 39.706 54.54C40.434 52.552 41.47 50.172 42.814 47.4C44.186 44.6 45.502 42.164 46.762 40.092C49.478 35.64 52.46 31.888 55.708 28.836C56.24 28.612 56.814 28.36 57.43 28.08C58.046 27.772 58.648 27.604 59.236 27.576C59.852 27.548 60.482 27.618 61.126 27.786C61.77 27.954 62.316 28.206 62.764 28.542C63.8 29.326 63.954 30.32 63.226 31.524ZM54.238 42.57C53.65 44.25 53.062 45.804 52.474 47.232C51.886 48.632 51.382 49.864 50.962 50.928L54.28 50.802C54.504 49.01 54.756 47.232 55.036 45.468C55.316 43.704 55.582 41.94 55.834 40.176L54.238 42.57ZM53.104 50.97C53.496 50.97 53.888 50.942 54.28 50.886V50.844C53.916 50.872 53.58 50.9 53.272 50.928C52.964 50.956 52.908 50.97 53.104 50.97ZM68.075 42.612C68.467 41.604 69.013 40.848 69.713 40.344C70.441 39.812 71.127 39.49 71.771 39.378C72.443 39.238 72.989 39.308 73.409 39.588C73.857 39.868 74.011 40.302 73.871 40.89C74.403 40.358 75.173 39.868 76.181 39.42C77.189 38.972 77.987 38.664 78.575 38.496C79.163 38.328 79.667 38.244 80.087 38.244C81.011 38.3 81.277 38.804 80.885 39.756C81.361 39.84 81.711 40.148 81.935 40.68C82.159 41.212 82.187 41.8 82.019 42.444C81.851 43.088 81.473 43.718 80.885 44.334C80.297 44.95 79.499 45.37 78.491 45.594C77.511 45.818 76.685 46.336 76.013 47.148C75.369 47.932 74.795 48.912 74.291 50.088C73.451 52.076 72.695 54.89 72.023 58.53C71.799 59.846 70.889 60.952 69.293 61.848C67.781 62.716 66.395 62.968 65.135 62.604C63.707 62.212 63.077 61.162 63.245 59.454C63.301 58.25 63.665 56.654 64.337 54.666C65.009 52.65 65.527 51.138 65.891 50.13C66.255 49.094 66.507 48.31 66.647 47.778L68.075 42.612ZM91.7824 28.584L91.8244 28.416L92.2024 28.038C92.5104 27.31 92.8464 26.876 93.2104 26.736C93.4064 26.68 93.6584 26.61 93.9664 26.526C94.2744 26.442 94.6804 26.232 95.1844 25.896C95.3804 25.504 95.7864 25.336 96.4024 25.392C97.0184 25.42 97.6204 25.616 98.2084 25.98C98.8244 26.316 99.3144 26.792 99.6784 27.408C100.07 28.024 100.168 28.668 99.9724 29.34C99.7764 29.984 99.6084 30.474 99.4684 30.81C99.3564 31.118 99.2304 31.412 99.0904 31.692C98.9784 31.972 98.8244 32.294 98.6284 32.658C98.4604 32.994 98.2364 33.456 97.9564 34.044L96.5704 36.942C96.4304 37.306 96.3044 37.516 96.1924 37.572C96.1084 37.628 96.0244 37.726 95.9404 37.866C96.1924 37.81 96.4024 37.768 96.5704 37.74C96.7384 37.712 96.9064 37.684 97.0744 37.656C97.4664 37.6 97.9144 37.544 98.4184 37.488C98.7264 37.544 98.9924 37.572 99.2164 37.572H99.8044C100.14 37.572 100.546 37.67 101.022 37.866C101.498 38.034 101.806 38.342 101.946 38.79C102.086 39.238 102.1 39.7 101.988 40.176C101.876 40.624 101.652 41.044 101.316 41.436C100.98 41.828 100.546 42.038 100.014 42.066C97.5784 42.738 95.8424 43.102 94.8064 43.158L94.5544 43.452V43.494C94.2744 44.166 93.9664 45.02 93.6304 46.056C93.3224 47.064 92.9724 48.17 92.5804 49.374C92.2164 50.55 91.8384 51.782 91.4464 53.07C91.0544 54.33 90.6484 55.548 90.2284 56.724C88.8844 60.672 87.9044 62.814 87.2884 63.15C87.0644 63.262 86.8264 63.332 86.5744 63.36C86.3504 63.416 86.2244 63.458 86.1964 63.486C85.2164 63.43 84.4044 63.234 83.7604 62.898C83.1164 62.562 82.6824 62.24 82.4584 61.932C82.2344 61.624 82.1784 61.274 82.2904 60.882C82.8224 56.01 83.8864 50.676 85.4824 44.88C84.9224 44.88 84.5304 44.936 84.3064 45.048C83.8864 45.272 83.3824 45.398 82.7944 45.426H82.7524C82.3044 45.398 81.8984 45.188 81.5344 44.796C81.1704 44.404 80.9464 43.956 80.8624 43.452C80.7784 42.948 80.8624 42.43 81.1144 41.898C81.3664 41.366 81.8704 40.946 82.6264 40.638C83.5224 40.386 84.1804 40.176 84.6004 40.008C85.4124 39.672 86.0844 39.434 86.6164 39.294C87.1764 39.154 87.4844 39.07 87.5404 39.042C87.6244 38.986 87.6804 38.944 87.7084 38.916C87.7924 38.86 88.0024 38.832 88.3384 38.832C88.5064 38.02 88.6744 37.194 88.8424 36.354C89.0104 35.514 89.2204 34.66 89.4724 33.792C90.0324 31.776 90.8024 30.04 91.7824 28.584Z" fill="url(#paint0_linear)"/>
<defs>
<linearGradient id="paint0_linear" x1="40" y1="51" x2="103.623" y2="44.1461" gradientUnits="userSpaceOnUse">
<stop stop-color="#0050EC"/>
<stop offset="0.276042" stop-color="#37DB8C"/>
<stop offset="0.666667" stop-color="#FD7439"/>
<stop offset="1" stop-color="#DB1976"/>
</linearGradient>
</defs>
</svg>
